# xmcd CD database file
#
# Track frame offsets:
#	150
#	11316
#	21732
#	31454
#	44652
#	55756
#	68823
#	79868
#	91784
#	102872
#	116870
#	127099
#	139922
#	150496
#	162775
#	173313
#	186574
#	199555
#	211253
#	224294
#
# Disc length: 3153 seconds
#
# Revision: 4
# Processed by: cddbd v1.5.2PL0 Copyright (c) Steve Scherf et al.
# Submitted via: Feurio! 1.68 - http://www.feurio.com
#
DISCID=160c4f14
DTITLE=Various Artist - Rhythm and Blues - Original Masters -  CD 10
DYEAR=2005
DGENRE=R&B
TTITLE0=Eddie Burnes - Hard Hearted Woman
TTITLE1=Carrie Grant - Mish Mash
TTITLE2=Brownie McGee - Anna Mae
TTITLE3=Babs Gonzales - House Rent Party
TTITLE4=Jimmy Liggins - Talking That Talk
TTITLE5=Babs Gonzales - She's Just Right For Me
TTITLE6=Stomp Gordon - The Grind
TTITLE7=Walkin' Willie - Blow Little Willie
TTITLE8=Sultans - You Got Me Goin'
TTITLE9=Wynonie Harris - I Want My Fanny Brown
TTITLE10=Varetta Dillard - Them Their Eyes
TTITLE11=Little Esther - It Ain't What You Say
TTITLE12=Esther And Willie - Turn The Lights Down Low
TTITLE13=Amos Milburn - Let Me Go Home Whiskey
TTITLE14=Eddie Hope - A Fool No More
TTITLE15=Mister Ruffin - Bring It On Back
TTITLE16=Tarheel Slim - Number Nine Train
TTITLE17=Buddy Lucas - Night Train
TTITLE18=Arthur Crudup - That's Alright Mama
TTITLE19=Louis Jordan - Choo Choo Ch' Boogie
EXTD=
EXTT0=
EXTT1=
EXTT2=
EXTT3=
EXTT4=
EXTT5=
EXTT6=
EXTT7=
EXTT8=
EXTT9=
EXTT10=
EXTT11=
EXTT12=
EXTT13=
EXTT14=
EXTT15=
EXTT16=
EXTT17=
EXTT18=
EXTT19=
PLAYORDER=
